<?xml version="1.0" standalone="no"?>
<!DOCTYPE svg PUBLIC "-//W3C//DTD SVG 20010904//EN"
 "http://www.w3.org/TR/2001/REC-SVG-20010904/DTD/svg10.dtd">
<svg version="1.0" xmlns="http://www.w3.org/2000/svg"
 width="600.000000pt" height="600.000000pt" viewBox="0 0 600.000000 600.000000"
 preserveAspectRatio="xMidYMid meet">

<g transform="translate(0.000000,600.000000) scale(0.100000,-0.100000)"
fill="#000000" stroke="none">
<path d="M940 5420 l0 -40 -40 0 -40 0 0 -40 0 -40 -40 0 -40 0 0 -80 0 -80
-40 0 -40 0 0 -80 0 -80 -40 0 -40 0 0 -200 0 -200 -40 0 -40 0 0 -480 0 -480
40 0 40 0 0 -40 0 -40 40 0 40 0 0 -40 0 -40 40 0 40 0 0 -40 0 -40 80 0 80 0
0 40 0 40 -80 0 -80 0 0 40 0 40 -40 0 -40 0 0 40 0 40 -40 0 -40 0 0 480 0
480 40 0 40 0 0 40 0 40 40 0 40 0 0 40 0 40 40 0 40 0 0 40 0 40 40 0 40 0 0
40 0 40 80 0 80 0 0 40 0 40 75 0 75 0 0 40 0 40 -75 0 -75 0 0 -40 0 -40 -80
0 -80 0 0 -40 0 -40 -40 0 -40 0 0 -40 0 -40 -40 0 -40 0 0 -40 0 -40 -40 0
-40 0 0 120 0 120 40 0 40 0 0 80 0 80 40 0 40 0 0 80 0 80 40 0 40 0 0 40 0
40 80 0 80 0 0 -40 0 -40 80 0 80 0 0 -40 0 -40 40 0 40 0 0 -40 0 -40 -40 0
-40 0 0 -40 0 -40 280 0 280 0 0 -40 0 -40 120 0 120 0 0 -40 0 -40 80 0 80 0
0 -40 0 -40 40 0 40 0 0 -40 0 -40 80 0 80 0 0 -40 0 -40 40 0 40 0 0 -40 0
-40 40 0 40 0 0 -360 0 -360 -40 0 -40 0 0 -40 0 -40 -40 0 -40 0 0 -40 0 -40
-40 0 -40 0 0 -40 0 -40 -40 0 -40 0 0 -40 0 -40 -40 0 -40 0 0 -40 0 -40 -40
0 -40 0 0 -40 0 -40 40 0 40 0 0 40 0 40 40 0 40 0 0 40 0 40 40 0 40 0 0 40
0 40 40 0 40 0 0 40 0 40 40 0 40 0 0 40 0 40 85 0 85 0 0 405 0 405 -45 0
-45 0 0 195 0 195 -40 0 -40 0 0 40 0 40 -40 0 -40 0 0 40 0 40 -40 0 -40 0 0
40 0 40 -40 0 -40 0 0 40 0 40 -40 0 -40 0 0 40 0 40 -40 0 -40 0 0 40 0 40
-120 0 -120 0 0 -40 0 -40 -40 0 -40 0 0 -40 0 -40 -40 0 -40 0 0 -40 0 -40
-40 0 -40 0 0 -40 0 -40 -120 0 -120 0 0 40 0 40 -40 0 -40 0 0 40 0 40 -40 0
-40 0 0 40 0 40 -80 0 -80 0 0 40 0 40 -80 0 -80 0 0 -40z m1200 -80 l0 -40
40 0 40 0 0 -40 0 -40 40 0 40 0 0 -40 0 -40 40 0 40 0 0 -40 0 -40 40 0 40 0
0 -40 0 -40 40 0 40 0 0 -120 0 -120 -40 0 -40 0 0 40 0 40 -80 0 -80 0 0 40
0 40 -40 0 -40 0 0 40 0 40 -80 0 -80 0 0 40 0 40 -120 0 -120 0 0 40 0 40
-40 0 -40 0 0 40 0 40 40 0 40 0 0 40 0 40 40 0 40 0 0 40 0 40 120 0 120 0 0
-40z"/>
<path d="M3910 5439 c-55 -25 -115 -81 -141 -132 -35 -68 -34 -117 7 -347 27
-149 35 -215 27 -217 -6 -2 -50 -27 -99 -56 -127 -76 -222 -174 -276 -284
l-43 -88 -3 -161 c-4 -181 5 -236 60 -334 88 -158 265 -286 496 -360 163 -53
249 -62 507 -58 212 4 238 7 334 32 213 57 364 138 487 260 58 58 90 101 115
151 l34 70 0 210 0 210 -33 68 c-57 115 -192 242 -332 312 -30 15 -56 29 -58
30 -2 2 13 91 32 198 20 108 36 215 36 239 0 105 -74 216 -172 258 -105 45
-241 14 -314 -72 -62 -74 -69 -105 -69 -315 l0 -193 -107 0 -108 0 -1 193 c0
120 -5 204 -12 224 -54 146 -230 224 -367 162z m190 -94 c29 -15 61 -49 81
-85 11 -19 15 -84 17 -260 l4 -235 199 0 199 0 0 230 c0 203 3 235 19 271 49
107 190 138 278 61 43 -38 63 -81 63 -139 0 -24 -18 -146 -41 -272 -22 -125
-39 -229 -37 -230 250 -117 349 -197 413 -332 58 -122 57 -352 -1 -473 -35
-71 -147 -182 -239 -237 -411 -241 -1057 -210 -1400 67 -151 122 -197 247
-177 481 7 84 15 118 37 165 54 110 212 243 361 302 42 16 49 22 46 42 -2 13
-21 121 -43 240 -45 249 -46 275 -19 329 44 86 152 120 240 75z"/>
<path d="M3980 4372 c-28 -29 -50 -86 -50 -132 0 -46 22 -103 50 -132 51 -51
116 -31 151 46 65 142 -54 314 -151 218z"/>
<path d="M4706 4379 c-40 -31 -56 -71 -56 -139 0 -157 131 -218 195 -91 21 42
22 139 1 180 -20 38 -62 71 -91 71 -12 0 -34 -9 -49 -21z"/>
<path d="M860 4220 l0 -40 -40 0 -40 0 0 -80 0 -80 80 0 80 0 0 120 0 120 -40
0 -40 0 0 -40z"/>
<path d="M1660 4220 l0 -40 -40 0 -40 0 0 -80 0 -80 80 0 80 0 0 120 0 120
-40 0 -40 0 0 -40z"/>
<path d="M1090 3930 c0 -39 1 -40 35 -40 l35 0 0 -75 0 -75 -75 0 -75 0 0 40
0 40 -40 0 -40 0 0 -40 0 -40 40 0 40 0 0 -40 0 -40 235 0 235 0 0 40 0 40 40
0 40 0 0 40 0 40 -40 0 -40 0 0 -40 0 -40 -75 0 -75 0 0 75 0 75 35 0 c34 0
35 1 35 40 l0 40 -155 0 -155 0 0 -40z"/>
<path d="M1063 2562 c-91 -48 -153 -147 -153 -242 0 -30 16 -140 35 -245 19
-104 35 -195 35 -201 0 -6 -24 -21 -52 -35 -119 -55 -258 -179 -319 -284 -54
-92 -69 -162 -69 -314 0 -219 33 -306 169 -442 139 -139 316 -228 546 -274
107 -22 149 -25 326 -25 177 0 219 3 319 24 386 81 647 280 714 544 10 39 16
106 16 174 0 178 -45 297 -157 419 -55 59 -198 162 -260 188 -19 7 -33 21 -33
30 0 9 12 79 25 156 14 77 31 170 37 206 22 128 -28 243 -132 307 -50 30 -60
32 -144 32 -108 0 -156 -19 -216 -87 -60 -69 -70 -115 -70 -327 l0 -181 -105
-1 -105 -1 0 182 c0 213 -10 259 -70 328 -60 68 -108 87 -216 87 -65 -1 -98
-6 -121 -18z m217 -107 c14 -7 32 -21 41 -31 41 -47 44 -64 49 -308 l5 -239
202 -1 203 -1 0 230 c0 203 3 235 19 271 49 107 190 138 278 61 43 -38 63 -82
63 -139 0 -24 -18 -142 -40 -263 -22 -121 -40 -224 -40 -230 1 -5 35 -26 78
-45 294 -134 411 -329 375 -621 -16 -122 -47 -184 -138 -274 -349 -345 -1139
-368 -1540 -44 -151 122 -197 247 -177 481 7 84 15 118 37 165 54 110 212 243
361 302 42 16 49 22 46 42 -2 13 -21 121 -43 240 -45 249 -46 275 -19 329 44
86 151 120 240 75z"/>
<path d="M1167 1499 c-23 -13 -67 -105 -67 -138 0 -78 63 -171 116 -171 41 0
73 25 95 74 35 77 14 190 -42 230 -27 18 -75 21 -102 5z"/>
<path d="M1878 1483 c-39 -43 -48 -67 -48 -133 0 -157 131 -218 195 -91 35 70
14 199 -39 236 -33 24 -79 19 -108 -12z"/>
<path d="M3730 2540 l0 -40 -40 0 -40 0 0 -40 0 -40 -40 0 -40 0 0 -80 0 -80
-40 0 -40 0 0 -80 0 -80 -40 0 -40 0 0 -200 0 -200 -40 0 -40 0 0 -480 0 -480
40 0 40 0 0 -40 0 -40 40 0 40 0 0 -40 0 -40 40 0 40 0 0 -40 0 -40 80 0 80 0
0 40 0 40 -80 0 -80 0 0 40 0 40 -40 0 -40 0 0 40 0 40 -40 0 -40 0 0 480 0
480 40 0 40 0 0 40 0 40 40 0 40 0 0 40 0 40 40 0 40 0 0 40 0 40 40 0 40 0 0
40 0 40 80 0 80 0 0 40 0 40 75 0 75 0 0 40 0 40 -75 0 -75 0 0 -40 0 -40 -80
0 -80 0 0 -40 0 -40 -40 0 -40 0 0 -40 0 -40 -40 0 -40 0 0 -40 0 -40 -40 0
-40 0 0 120 0 120 40 0 40 0 0 80 0 80 40 0 40 0 0 80 0 80 40 0 40 0 0 40 0
40 80 0 80 0 0 -40 0 -40 80 0 80 0 0 -40 0 -40 40 0 40 0 0 -40 0 -40 -40 0
-40 0 0 -40 0 -40 280 0 280 0 0 -40 0 -40 120 0 120 0 0 -40 0 -40 80 0 80 0
0 -40 0 -40 40 0 40 0 0 -40 0 -40 80 0 80 0 0 -40 0 -40 40 0 40 0 0 -40 0
-40 40 0 40 0 0 -360 0 -360 -40 0 -40 0 0 -40 0 -40 -40 0 -40 0 0 -40 0 -40
-40 0 -40 0 0 -40 0 -40 -40 0 -40 0 0 -40 0 -40 -40 0 -40 0 0 -40 0 -40 -40
0 -40 0 0 -40 0 -40 40 0 40 0 0 40 0 40 40 0 40 0 0 40 0 40 40 0 40 0 0 40
0 40 40 0 40 0 0 40 0 40 40 0 40 0 0 40 0 40 85 0 85 0 0 405 0 405 -45 0
-45 0 0 195 0 195 -40 0 -40 0 0 40 0 40 -40 0 -40 0 0 40 0 40 -40 0 -40 0 0
40 0 40 -40 0 -40 0 0 40 0 40 -40 0 -40 0 0 40 0 40 -40 0 -40 0 0 40 0 40
-120 0 -120 0 0 -40 0 -40 -40 0 -40 0 0 -40 0 -40 -40 0 -40 0 0 -40 0 -40
-40 0 -40 0 0 -40 0 -40 -120 0 -120 0 0 40 0 40 -40 0 -40 0 0 40 0 40 -40 0
-40 0 0 40 0 40 -80 0 -80 0 0 40 0 40 -80 0 -80 0 0 -40z m1200 -80 l0 -40
40 0 40 0 0 -40 0 -40 40 0 40 0 0 -40 0 -40 40 0 40 0 0 -40 0 -40 40 0 40 0
0 -40 0 -40 40 0 40 0 0 -120 0 -120 -40 0 -40 0 0 40 0 40 -80 0 -80 0 0 40
0 40 -40 0 -40 0 0 40 0 40 -80 0 -80 0 0 40 0 40 -120 0 -120 0 0 40 0 40
-40 0 -40 0 0 40 0 40 40 0 40 0 0 40 0 40 40 0 40 0 0 40 0 40 120 0 120 0 0
-40z"/>
<path d="M3650 1340 l0 -40 -40 0 -40 0 0 -80 0 -80 80 0 80 0 0 120 0 120
-40 0 -40 0 0 -40z"/>
<path d="M4450 1340 l0 -40 -40 0 -40 0 0 -80 0 -80 80 0 80 0 0 120 0 120
-40 0 -40 0 0 -40z"/>
<path d="M3880 1050 c0 -39 1 -40 35 -40 l35 0 0 -75 0 -75 -75 0 -75 0 0 40
0 40 -40 0 -40 0 0 -40 0 -40 40 0 40 0 0 -40 0 -40 235 0 235 0 0 40 0 40 40
0 40 0 0 40 0 40 -40 0 -40 0 0 -40 0 -40 -75 0 -75 0 0 75 0 75 35 0 c34 0
35 1 35 40 l0 40 -155 0 -155 0 0 -40z"/>
</g>
</svg>
